<?xml version="1.0" encoding="utf-8"?>
<!-- Generator: Adobe Illustrator 21.0.2, SVG Export Plug-In . SVG Version: 6.00 Build 0)  -->
<svg version="1.1" id="Layer_1" xmlns="http://www.w3.org/2000/svg" xmlns:xlink="http://www.w3.org/1999/xlink" x="0px" y="0px"
	 viewBox="0 0 301.5 73.5" style="enable-background:new 0 0 301.5 73.5;" xml:space="preserve">
<style type="text/css">
	.st0{fill:#090B0F;}
	.st1{fill:#81BDC9;}
</style>
<g>
	<path class="st0" d="M297.2,69.9l-0.7-0.7l0.7-0.7l0.7,0.7L297.2,69.9z M294.3,67l-0.7-0.7l0.7-0.7l0.7,0.7L294.3,67z M291.5,64.2
		l-0.7-0.7l0.7-0.7l0.7,0.7L291.5,64.2z M288.7,61.4l-0.7-0.7l0.7-0.7l0.7,0.7L288.7,61.4z M285.9,58.6l-0.7-0.7l0.7-0.7l0.7,0.7
		L285.9,58.6z M283,55.7l-0.7-0.7l0.7-0.7l0.7,0.7L283,55.7z M280.2,52.9l-0.7-0.7l0.7-0.7l0.7,0.7L280.2,52.9z M277.4,50.1
		l-0.7-0.7l0.7-0.7l0.7,0.7L277.4,50.1z M274.5,47.2l-0.7-0.7l0.7-0.7l0.7,0.7L274.5,47.2z M271.7,44.4l-0.7-0.7l0.7-0.7l0.7,0.7
		L271.7,44.4z M268.9,41.6l-0.7-0.7l0.7-0.7l0.7,0.7L268.9,41.6z M266.1,38.8l-0.7-0.7l0.7-0.7l0.7,0.7L266.1,38.8z M263.2,35.9
		l-0.7-0.7l0.7-0.7l0.7,0.7L263.2,35.9z M260.4,33.1l-0.7-0.7l0.7-0.7l0.7,0.7L260.4,33.1z M257.6,30.3l-0.7-0.7l0.7-0.7l0.7,0.7
		L257.6,30.3z M254.7,27.4l-0.7-0.7l0.7-0.7l0.7,0.7L254.7,27.4z M251.9,24.6l-0.7-0.7l0.7-0.7l0.7,0.7L251.9,24.6z M249.1,21.8
		l-0.7-0.7l0.7-0.7l0.7,0.7L249.1,21.8z M246.3,19l-0.7-0.7l0.7-0.7l0.7,0.7L246.3,19z M243.4,16.1l-0.7-0.7l0.7-0.7l0.7,0.7
		L243.4,16.1z M240.6,13.3l-0.7-0.7l0.7-0.7l0.7,0.7L240.6,13.3z M237.8,10.5l-0.7-0.7l0.7-0.7l0.7,0.7L237.8,10.5z M234.9,7.6
		l-0.7-0.7l0.7-0.7l0.7,0.7L234.9,7.6z M232.1,4.8l-0.7-0.7l0.7-0.7l0.7,0.7L232.1,4.8z M229.1,3.3h-1v-1h1V3.3z M225.1,3.3h-1v-1h1
		V3.3z M221.1,3.3h-1v-1h1V3.3z M217.1,3.3h-1v-1h1V3.3z M213.1,3.3h-1v-1h1V3.3z M209.1,3.3h-1v-1h1V3.3z M205.1,3.3h-1v-1h1V3.3z
		 M201.1,3.3h-1v-1h1V3.3z M197.1,3.3h-1v-1h1V3.3z M193.1,3.3h-1v-1h1V3.3z M189.1,3.3h-1v-1h1V3.3z M185.1,3.3h-1v-1h1V3.3z
		 M181.1,3.3h-1v-1h1V3.3z M177.1,3.3h-1v-1h1V3.3z M173.1,3.3h-1v-1h1V3.3z M169.1,3.3h-1v-1h1V3.3z M165.1,3.3h-1v-1h1V3.3z
		 M161.1,3.3h-1v-1h1V3.3z M157.1,3.3h-1v-1h1V3.3z M153.1,3.3h-1v-1h1V3.3z M149.1,3.3h-1v-1h1V3.3z M145.1,3.3h-1v-1h1V3.3z
		 M141.1,3.3h-1v-1h1V3.3z M137.1,3.3h-1v-1h1V3.3z M133.1,3.3h-1v-1h1V3.3z M129.1,3.3h-1v-1h1V3.3z M125.1,3.3h-1v-1h1V3.3z
		 M121.1,3.3h-1v-1h1V3.3z M117.1,3.3h-1v-1h1V3.3z M113.1,3.3h-1v-1h1V3.3z M109.1,3.3h-1v-1h1V3.3z M105.1,3.3h-1v-1h1V3.3z
		 M101.1,3.3h-1v-1h1V3.3z M97.1,3.3h-1v-1h1V3.3z M93.1,3.3h-1v-1h1V3.3z M89.1,3.3h-1v-1h1V3.3z M85.1,3.3h-1v-1h1V3.3z M81.1,3.3
		h-1v-1h1V3.3z M77.1,3.3h-1v-1h1V3.3z M73.1,3.3h-1v-1h1V3.3z M69.1,3.3h-1v-1h1V3.3z M65.1,3.3h-1v-1h1V3.3z M61.1,3.3h-1v-1h1
		V3.3z M57.1,3.3h-1v-1h1V3.3z M53.1,3.3h-1v-1h1V3.3z M49.1,3.3h-1v-1h1V3.3z M45.1,3.3h-1v-1h1V3.3z M41.1,3.3h-1v-1h1V3.3z
		 M37.1,3.3h-1v-1h1V3.3z M33.1,3.3h-1v-1h1V3.3z M29.1,3.3h-1v-1h1V3.3z M25.1,3.3h-1v-1h1V3.3z M21.1,3.3h-1v-1h1V3.3z M17.1,3.3
		h-1v-1h1V3.3z M13.1,3.3h-1v-1h1V3.3z M9.1,3.3h-1v-1h1V3.3z M5.1,3.3h-1v-1h1V3.3z"/>
</g>
<circle class="st1" cx="2.9" cy="2.9" r="2.9"/>
<circle class="st1" cx="298.6" cy="70.6" r="2.9"/>
</svg>
