<?xml version="1.0" encoding="utf-8"?>
<!-- Generator: Adobe Illustrator 21.0.2, SVG Export Plug-In . SVG Version: 6.00 Build 0)  -->
<svg version="1.1" id="Layer_1" xmlns="http://www.w3.org/2000/svg" xmlns:xlink="http://www.w3.org/1999/xlink" x="0px" y="0px"
	 viewBox="0 0 268.1 27.8" style="enable-background:new 0 0 268.1 27.8;" xml:space="preserve">
<style type="text/css">
	.st0{fill:#090B0F;}
	.st1{fill:#81BDC9;}
</style>
<g>
	<path class="st0" d="M245.2,25.3h-0.8v-1h0.4l0.1-0.1l0.7,0.7L245.2,25.3z M241.4,25.3h-1v-1h1V25.3z M237.4,25.3h-1v-1h1V25.3z
		 M233.4,25.3h-1v-1h1V25.3z M229.4,25.3h-1v-1h1V25.3z M225.4,25.3h-1v-1h1V25.3z M221.4,25.3h-1v-1h1V25.3z M217.4,25.3h-1v-1h1
		V25.3z M213.4,25.3h-1v-1h1V25.3z M209.4,25.3h-1v-1h1V25.3z M205.4,25.3h-1v-1h1V25.3z M201.4,25.3h-1v-1h1V25.3z M197.4,25.3h-1
		v-1h1V25.3z M193.4,25.3h-1v-1h1V25.3z M189.4,25.3h-1v-1h1V25.3z M185.4,25.3h-1v-1h1V25.3z M181.4,25.3h-1v-1h1V25.3z
		 M177.4,25.3h-1v-1h1V25.3z M173.4,25.3h-1v-1h1V25.3z M169.4,25.3h-1v-1h1V25.3z M165.4,25.3h-1v-1h1V25.3z M161.4,25.3h-1v-1h1
		V25.3z M157.4,25.3h-1v-1h1V25.3z M153.4,25.3h-1v-1h1V25.3z M149.4,25.3h-1v-1h1V25.3z M145.4,25.3h-1v-1h1V25.3z M141.4,25.3h-1
		v-1h1V25.3z M137.4,25.3h-1v-1h1V25.3z M133.4,25.3h-1v-1h1V25.3z M129.4,25.3h-1v-1h1V25.3z M125.4,25.3h-1v-1h1V25.3z
		 M121.4,25.3h-1v-1h1V25.3z M117.4,25.3h-1v-1h1V25.3z M113.4,25.3h-1v-1h1V25.3z M109.4,25.3h-1v-1h1V25.3z M105.4,25.3h-1v-1h1
		V25.3z M101.4,25.3h-1v-1h1V25.3z M97.4,25.3h-1v-1h1V25.3z M93.4,25.3h-1v-1h1V25.3z M89.4,25.3h-1v-1h1V25.3z M85.4,25.3h-1v-1h1
		V25.3z M81.4,25.3h-1v-1h1V25.3z M77.4,25.3h-1v-1h1V25.3z M73.4,25.3h-1v-1h1V25.3z M69.4,25.3h-1v-1h1V25.3z M65.4,25.3h-1v-1h1
		V25.3z M61.4,25.3h-1v-1h1V25.3z M57.4,25.3h-1v-1h1V25.3z M53.4,25.3h-1v-1h1V25.3z M49.4,25.3h-1v-1h1V25.3z M45.4,25.3h-1v-1h1
		V25.3z M41.4,25.3h-1v-1h1V25.3z M37.4,25.3h-1v-1h1V25.3z M33.4,25.3h-1v-1h1V25.3z M29.4,25.3h-1v-1h1V25.3z M25.4,25.3h-1v-1h1
		V25.3z M21.4,25.3h-1v-1h1V25.3z M17.4,25.3h-1v-1h1V25.3z M13.4,25.3h-1v-1h1V25.3z M9.4,25.3h-1v-1h1V25.3z M5.4,25.3h-1v-1h1
		V25.3z M247.7,22.7L247,22l0.7-0.7l0.7,0.7L247.7,22.7z M250.3,19.7l-0.7-0.7l0.7-0.7L251,19L250.3,19.7z M253,16.7l-0.7-0.7
		l0.7-0.7l0.7,0.7L253,16.7z M255.7,13.8l-0.7-0.7l0.7-0.7l0.7,0.7L255.7,13.8z M258.4,10.8l-0.7-0.7l0.7-0.7l0.7,0.7L258.4,10.8z
		 M261.1,7.9l-0.7-0.7l0.7-0.7l0.7,0.7L261.1,7.9z M263.8,4.9l-0.7-0.7l0.7-0.7l0.7,0.7L263.8,4.9z"/>
</g>
<circle class="st1" cx="2.9" cy="24.9" r="2.9"/>
<circle class="st1" cx="265.2" cy="2.9" r="2.9"/>
</svg>
