<?xml version="1.0" encoding="utf-8"?>
<!-- Generator: Adobe Illustrator 21.0.2, SVG Export Plug-In . SVG Version: 6.00 Build 0)  -->
<svg version="1.1" id="Layer_1" xmlns="http://www.w3.org/2000/svg" xmlns:xlink="http://www.w3.org/1999/xlink" x="0px" y="0px"
	 viewBox="0 0 366.5 60.2" style="enable-background:new 0 0 366.5 60.2;" xml:space="preserve">
<style type="text/css">
	.st0{fill:#090B0F;}
	.st1{fill:#81BDC9;}
</style>
<g>
	<path class="st0" d="M309.2,57.9h-1v-1h1V57.9z M305.2,57.9h-1v-1h1V57.9z M301.2,57.9h-1v-1h1V57.9z M297.2,57.9h-1v-1h1V57.9z
		 M293.2,57.9h-1v-1h1V57.9z M289.2,57.9h-1v-1h1V57.9z M285.2,57.9h-1v-1h1V57.9z M281.2,57.9h-1v-1h1V57.9z M277.2,57.9h-1v-1h1
		V57.9z M273.2,57.9h-1v-1h1V57.9z M269.2,57.9h-1v-1h1V57.9z M265.2,57.9h-1v-1h1V57.9z M261.2,57.9h-1v-1h1V57.9z M257.2,57.9h-1
		v-1h1V57.9z M253.2,57.9h-1v-1h1V57.9z M249.2,57.9h-1v-1h1V57.9z M245.2,57.9h-1v-1h1V57.9z M241.2,57.9h-1v-1h1V57.9z
		 M237.2,57.9h-1v-1h1V57.9z M233.2,57.9h-1v-1h1V57.9z M229.2,57.9h-1v-1h1V57.9z M225.2,57.9h-1v-1h1V57.9z M221.2,57.9h-1v-1h1
		V57.9z M217.2,57.9h-1v-1h1V57.9z M213.2,57.9h-1v-1h1V57.9z M209.2,57.9h-1v-1h1V57.9z M205.2,57.9h-1v-1h1V57.9z M201.2,57.9h-1
		v-1h1V57.9z M197.2,57.9h-1v-1h1V57.9z M193.2,57.9h-1v-1h1V57.9z M189.2,57.9h-1v-1h1V57.9z M185.2,57.9h-1v-1h1V57.9z
		 M181.2,57.9h-1v-1h1V57.9z M177.2,57.9h-1v-1h1V57.9z M173.2,57.9h-1v-1h1V57.9z M169.2,57.9h-1v-1h1V57.9z M165.2,57.9h-1v-1h1
		V57.9z M161.2,57.9h-1v-1h1V57.9z M157.2,57.9h-1v-1h1V57.9z M153.2,57.9h-1v-1h1V57.9z M149.2,57.9h-1v-1h1V57.9z M145.2,57.9h-1
		v-1h1V57.9z M141.2,57.9h-1v-1h1V57.9z M137.2,57.9h-1v-1h1V57.9z M133.2,57.9h-1v-1h1V57.9z M129.2,57.9h-1v-1h1V57.9z
		 M125.2,57.9h-1v-1h1V57.9z M121.2,57.9h-1v-1h1V57.9z M117.2,57.9h-1v-1h1V57.9z M113.2,57.9h-1v-1h1V57.9z M109.2,57.9h-1v-1h1
		V57.9z M105.2,57.9h-1v-1h1V57.9z M101.2,57.9h-1v-1h1V57.9z M97.2,57.9h-1v-1h1V57.9z M93.2,57.9h-1v-1h1V57.9z M89.2,57.9h-1v-1
		h1V57.9z M85.2,57.9h-1v-1h1V57.9z M81.2,57.9h-1v-1h1V57.9z M77.2,57.9h-1v-1h1V57.9z M73.2,57.9h-1v-1h1V57.9z M69.2,57.9h-1v-1
		h1V57.9z M65.2,57.9h-1v-1h1V57.9z M61.2,57.9h-1v-1h1V57.9z M57.2,57.9h-1v-1h1V57.9z M53.2,57.9h-1v-1h1V57.9z M49.2,57.9h-1v-1
		h1V57.9z M45.2,57.9h-1v-1h1V57.9z M41.2,57.9h-1v-1h1V57.9z M37.2,57.9h-1v-1h1V57.9z M33.2,57.9h-1v-1h1V57.9z M29.2,57.9h-1v-1
		h1V57.9z M25.2,57.9h-1v-1h1V57.9z M21.2,57.9h-1v-1h1V57.9z M17.2,57.9h-1v-1h1V57.9z M13.2,57.9h-1v-1h1V57.9z M9.2,57.9h-1v-1h1
		V57.9z M5.2,57.9h-1v-1h1V57.9z M312.1,56.8l-0.7-0.7l0.7-0.7l0.7,0.7L312.1,56.8z M314.9,53.9l-0.7-0.7l0.7-0.7l0.7,0.7
		L314.9,53.9z M317.7,51l-0.7-0.7l0.7-0.7l0.7,0.7L317.7,51z M320.5,48.1l-0.7-0.7l0.7-0.7l0.7,0.7L320.5,48.1z M323.2,45.3
		l-0.7-0.7l0.7-0.7l0.7,0.7L323.2,45.3z M326,42.4l-0.7-0.7L326,41l0.7,0.7L326,42.4z M328.8,39.5l-0.7-0.7l0.7-0.7l0.7,0.7
		L328.8,39.5z M331.6,36.6l-0.7-0.7l0.7-0.7l0.7,0.7L331.6,36.6z M334.4,33.8l-0.7-0.7l0.7-0.7l0.7,0.7L334.4,33.8z M337.1,30.9
		l-0.7-0.7l0.7-0.7l0.7,0.7L337.1,30.9z M339.9,28l-0.7-0.7l0.7-0.7l0.7,0.7L339.9,28z M342.7,25.1l-0.7-0.7l0.7-0.7l0.7,0.7
		L342.7,25.1z M345.5,22.2l-0.7-0.7l0.7-0.7l0.7,0.7L345.5,22.2z M348.3,19.4l-0.7-0.7l0.7-0.7l0.7,0.7L348.3,19.4z M351,16.5
		l-0.7-0.7l0.7-0.7l0.7,0.7L351,16.5z M353.8,13.6l-0.7-0.7l0.7-0.7l0.7,0.7L353.8,13.6z M356.6,10.7l-0.7-0.7l0.7-0.7l0.7,0.7
		L356.6,10.7z M359.4,7.9l-0.7-0.7l0.7-0.7l0.7,0.7L359.4,7.9z M362.2,5l-0.7-0.7l0.7-0.7l0.7,0.7L362.2,5z"/>
</g>
<circle class="st1" cx="2.9" cy="57.3" r="2.9"/>
<circle class="st1" cx="363.6" cy="2.9" r="2.9"/>
</svg>
