<?xml version="1.0" encoding="utf-8"?>
<!-- Generator: Adobe Illustrator 21.0.2, SVG Export Plug-In . SVG Version: 6.00 Build 0)  -->
<svg version="1.1" id="Layer_1" xmlns="http://www.w3.org/2000/svg" xmlns:xlink="http://www.w3.org/1999/xlink" x="0px" y="0px"
	 viewBox="0 0 335.3 104.3" style="enable-background:new 0 0 335.3 104.3;" xml:space="preserve">
<style type="text/css">
	.st0{fill:#090B0F;}
	.st1{fill:#81BDC9;}
</style>
<path class="st0" d="M3.6,101.4l-0.7-0.7l0.7-0.7l0.7,0.7L3.6,101.4z M6.4,98.5l-0.7-0.7l0.7-0.7l0.7,0.7L6.4,98.5z M9.2,95.7
	L8.5,95l0.7-0.7L9.9,95L9.2,95.7z M12.1,92.9l-0.7-0.7l0.7-0.7l0.7,0.7L12.1,92.9z M14.9,90.1l-0.7-0.7l0.7-0.7l0.7,0.7L14.9,90.1z
	 M17.7,87.2L17,86.5l0.7-0.7l0.7,0.7L17.7,87.2z M20.6,84.4l-0.7-0.7l0.7-0.7l0.7,0.7L20.6,84.4z M23.4,81.6l-0.7-0.7l0.7-0.7
	l0.7,0.7L23.4,81.6z M26.2,78.7L25.5,78l0.7-0.7l0.7,0.7L26.2,78.7z M29,75.9l-0.7-0.7l0.7-0.7l0.7,0.7L29,75.9z M31.9,73.1
	l-0.7-0.7l0.7-0.7l0.7,0.7L31.9,73.1z M34.7,70.3L34,69.6l0.7-0.7l0.7,0.7L34.7,70.3z M37.5,67.4l-0.7-0.7l0.7-0.7l0.7,0.7
	L37.5,67.4z M40.4,64.6l-0.7-0.7l0.7-0.7l0.7,0.7L40.4,64.6z M43.2,61.8l-0.7-0.7l0.7-0.7l0.7,0.7L43.2,61.8z M46,58.9l-0.7-0.7
	l0.7-0.7l0.7,0.7L46,58.9z M48.8,56.1l-0.7-0.7l0.7-0.7l0.7,0.7L48.8,56.1z M51.7,53.3L51,52.6l0.7-0.7l0.7,0.7L51.7,53.3z
	 M54.5,50.5l-0.7-0.7l0.7-0.7l0.7,0.7L54.5,50.5z M57.3,47.6l-0.7-0.7l0.7-0.7l0.7,0.7L57.3,47.6z M60.2,44.8l-0.7-0.7l0.7-0.7
	l0.7,0.7L60.2,44.8z M63,42l-0.7-0.7l0.7-0.7l0.7,0.7L63,42z M65.8,39.1l-0.7-0.7l0.7-0.7l0.7,0.7L65.8,39.1z M68.6,36.3l-0.7-0.7
	l0.7-0.7l0.7,0.7L68.6,36.3z M71.5,33.5l-0.7-0.7l0.7-0.7l0.7,0.7L71.5,33.5z M74.3,30.7L73.6,30l0.7-0.7L75,30L74.3,30.7z
	 M77.1,27.8l-0.7-0.7l0.7-0.7l0.7,0.7L77.1,27.8z M80,25l-0.7-0.7l0.7-0.7l0.7,0.7L80,25z M82.8,22.2l-0.7-0.7l0.7-0.7l0.7,0.7
	L82.8,22.2z M85.6,19.3l-0.7-0.7l0.7-0.7l0.7,0.7L85.6,19.3z M88.4,16.5l-0.7-0.7l0.7-0.7l0.7,0.7L88.4,16.5z M91.3,13.7L90.6,13
	l0.7-0.7L92,13L91.3,13.7z M94.1,10.9l-0.7-0.7l0.7-0.7l0.7,0.7L94.1,10.9z M96.9,8l-0.7-0.7l0.7-0.7l0.7,0.7L96.9,8z M99.8,5.2
	l-0.7-0.7l0.7-0.7l0.7,0.7L99.8,5.2z M331.4,3h-1V2h1V3z M327.4,3h-1V2h1V3z M323.4,3h-1V2h1V3z M319.4,3h-1V2h1V3z M315.4,3h-1V2h1
	V3z M311.4,3h-1V2h1V3z M307.4,3h-1V2h1V3z M303.4,3h-1V2h1V3z M299.4,3h-1V2h1V3z M295.4,3h-1V2h1V3z M291.4,3h-1V2h1V3z M287.4,3
	h-1V2h1V3z M283.4,3h-1V2h1V3z M279.4,3h-1V2h1V3z M275.4,3h-1V2h1V3z M271.4,3h-1V2h1V3z M267.4,3h-1V2h1V3z M263.4,3h-1V2h1V3z
	 M259.4,3h-1V2h1V3z M255.4,3h-1V2h1V3z M251.4,3h-1V2h1V3z M247.4,3h-1V2h1V3z M243.4,3h-1V2h1V3z M239.4,3h-1V2h1V3z M235.4,3h-1
	V2h1V3z M231.4,3h-1V2h1V3z M227.4,3h-1V2h1V3z M223.4,3h-1V2h1V3z M219.4,3h-1V2h1V3z M215.4,3h-1V2h1V3z M211.4,3h-1V2h1V3z
	 M207.4,3h-1V2h1V3z M203.4,3h-1V2h1V3z M199.4,3h-1V2h1V3z M195.4,3h-1V2h1V3z M191.4,3h-1V2h1V3z M187.4,3h-1V2h1V3z M183.4,3h-1
	V2h1V3z M179.4,3h-1V2h1V3z M175.4,3h-1V2h1V3z M171.4,3h-1V2h1V3z M167.4,3h-1V2h1V3z M163.4,3h-1V2h1V3z M159.4,3h-1V2h1V3z
	 M155.4,3h-1V2h1V3z M151.4,3h-1V2h1V3z M147.4,3h-1V2h1V3z M143.4,3h-1V2h1V3z M139.4,3h-1V2h1V3z M135.4,3h-1V2h1V3z M131.4,3h-1
	V2h1V3z M127.4,3h-1V2h1V3z M123.4,3h-1V2h1V3z M119.4,3h-1V2h1V3z M115.4,3h-1V2h1V3z M111.4,3h-1V2h1V3z M107.4,3h-1V2h1V3z
	 M103.4,3h-1V2h1V3z"/>
<circle class="st1" cx="2.9" cy="101.4" r="2.9"/>
<circle class="st1" cx="332.4" cy="2.9" r="2.9"/>
</svg>
