<?xml version="1.0" encoding="utf-8"?>
<!-- Generator: Adobe Illustrator 21.0.2, SVG Export Plug-In . SVG Version: 6.00 Build 0)  -->
<svg version="1.1" id="Layer_1" xmlns="http://www.w3.org/2000/svg" xmlns:xlink="http://www.w3.org/1999/xlink" x="0px" y="0px"
	 viewBox="0 0 252.1 46.6" style="enable-background:new 0 0 252.1 46.6;" xml:space="preserve">
<style type="text/css">
	.st0{fill:#090B0F;}
	.st1{fill:#81BDC9;}
</style>
<g>
	<path class="st0" d="M3.9,43.2l-0.7-0.7l0.7-0.7l0.7,0.7L3.9,43.2z M6.7,40.4L6,39.7L6.7,39l0.7,0.7L6.7,40.4z M9.6,37.6l-0.7-0.7
		l0.7-0.7l0.7,0.7L9.6,37.6z M12.4,34.7L11.7,34l0.7-0.7l0.7,0.7L12.4,34.7z M15.2,31.9l-0.7-0.7l0.7-0.7l0.7,0.7L15.2,31.9z
		 M18.1,29.1l-0.7-0.7l0.7-0.7l0.7,0.7L18.1,29.1z M20.9,26.3l-0.7-0.7l0.7-0.7l0.7,0.7L20.9,26.3z M23.7,23.4L23,22.7l0.7-0.7
		l0.7,0.7L23.7,23.4z M26.5,20.6l-0.7-0.7l0.7-0.7l0.7,0.7L26.5,20.6z M29.4,17.8l-0.7-0.7l0.7-0.7l0.7,0.7L29.4,17.8z M32.2,14.9
		l-0.7-0.7l0.7-0.7l0.7,0.7L32.2,14.9z M35,12.1l-0.7-0.7l0.7-0.7l0.7,0.7L35,12.1z M37.9,9.3l-0.7-0.7l0.7-0.7l0.7,0.7L37.9,9.3z
		 M40.7,6.5L40,5.8l0.7-0.7l0.7,0.7L40.7,6.5z M43.5,3.6l-0.7-0.7l0.6-0.6h0.5v1h-0.1L43.5,3.6z M248,3.3h-1v-1h1V3.3z M244,3.3h-1
		v-1h1V3.3z M240,3.3h-1v-1h1V3.3z M236,3.3h-1v-1h1V3.3z M232,3.3h-1v-1h1V3.3z M228,3.3h-1v-1h1V3.3z M224,3.3h-1v-1h1V3.3z
		 M220,3.3h-1v-1h1V3.3z M216,3.3h-1v-1h1V3.3z M212,3.3h-1v-1h1V3.3z M208,3.3h-1v-1h1V3.3z M204,3.3h-1v-1h1V3.3z M200,3.3h-1v-1
		h1V3.3z M196,3.3h-1v-1h1V3.3z M192,3.3h-1v-1h1V3.3z M188,3.3h-1v-1h1V3.3z M184,3.3h-1v-1h1V3.3z M180,3.3h-1v-1h1V3.3z M176,3.3
		h-1v-1h1V3.3z M172,3.3h-1v-1h1V3.3z M168,3.3h-1v-1h1V3.3z M164,3.3h-1v-1h1V3.3z M160,3.3h-1v-1h1V3.3z M156,3.3h-1v-1h1V3.3z
		 M152,3.3h-1v-1h1V3.3z M148,3.3h-1v-1h1V3.3z M144,3.3h-1v-1h1V3.3z M140,3.3h-1v-1h1V3.3z M136,3.3h-1v-1h1V3.3z M132,3.3h-1v-1
		h1V3.3z M128,3.3h-1v-1h1V3.3z M124,3.3h-1v-1h1V3.3z M120,3.3h-1v-1h1V3.3z M116,3.3h-1v-1h1V3.3z M112,3.3h-1v-1h1V3.3z M108,3.3
		h-1v-1h1V3.3z M104,3.3h-1v-1h1V3.3z M100,3.3h-1v-1h1V3.3z M96,3.3h-1v-1h1V3.3z M92,3.3h-1v-1h1V3.3z M88,3.3h-1v-1h1V3.3z
		 M84,3.3h-1v-1h1V3.3z M80,3.3h-1v-1h1V3.3z M76,3.3h-1v-1h1V3.3z M72,3.3h-1v-1h1V3.3z M68,3.3h-1v-1h1V3.3z M64,3.3h-1v-1h1V3.3z
		 M60,3.3h-1v-1h1V3.3z M56,3.3h-1v-1h1V3.3z M52,3.3h-1v-1h1V3.3z M48,3.3h-1v-1h1V3.3z"/>
</g>
<circle class="st1" cx="2.9" cy="43.7" r="2.9"/>
<circle class="st1" cx="249.2" cy="2.9" r="2.9"/>
</svg>
