<?xml version="1.0" encoding="utf-8"?>
<!-- Generator: Adobe Illustrator 21.0.2, SVG Export Plug-In . SVG Version: 6.00 Build 0)  -->
<svg version="1.1" id="Layer_1" xmlns="http://www.w3.org/2000/svg" xmlns:xlink="http://www.w3.org/1999/xlink" x="0px" y="0px"
	 viewBox="0 0 233.8 41.6" style="enable-background:new 0 0 233.8 41.6;" xml:space="preserve">
<style type="text/css">
	.st0{fill:#090B0F;}
	.st1{fill:#81BDC9;}
</style>
<g>
	<path class="st0" d="M229.6,39.1h-1v-1h1V39.1z M225.6,39.1h-1v-1h1V39.1z M221.6,39.1h-1v-1h1V39.1z M217.6,39.1h-1v-1h1V39.1z
		 M213.6,39.1h-1v-1h1V39.1z M209.6,39.1h-1v-1h1V39.1z M205.6,39.1h-1v-1h1V39.1z M201.6,39.1h-1v-1h1V39.1z M197.6,39.1h-1v-1h1
		V39.1z M193.6,39.1h-1v-1h1V39.1z M189.6,39.1h-1v-1h1V39.1z M185.6,39.1h-1v-1h1V39.1z M181.6,39.1h-1v-1h1V39.1z M177.6,39.1h-1
		v-1h1V39.1z M173.6,39.1h-1v-1h1V39.1z M169.6,39.1h-1v-1h1V39.1z M165.6,39.1h-1v-1h1V39.1z M161.6,39.1h-1v-1h1V39.1z
		 M157.6,39.1h-1v-1h1V39.1z M153.6,39.1h-1v-1h1V39.1z M149.6,39.1h-1v-1h1V39.1z M145.6,39.1h-1v-1h1V39.1z M141.6,39.1h-1v-1h1
		V39.1z M137.6,39.1h-1v-1h1V39.1z M133.6,39.1h-1v-1h1V39.1z M129.6,39.1h-1v-1h1V39.1z M125.6,39.1h-1v-1h1V39.1z M121.6,39.1h-1
		v-1h1V39.1z M117.6,39.1h-1v-1h1V39.1z M113.6,39.1h-1v-1h1V39.1z M109.6,39.1h-1v-1h1V39.1z M105.6,39.1h-1v-1h1V39.1z
		 M101.6,39.1h-1v-1h1V39.1z M97.6,39.1h-1v-1h1V39.1z M93.6,39.1h-1v-1h1V39.1z M89.6,39.1h-1v-1h1V39.1z M85.6,39.1h-1v-1h1V39.1z
		 M81.6,39.1h-1v-1h1V39.1z M77.6,39.1h-1v-1h1V39.1z M73.6,39.1h-1v-1h1V39.1z M69.6,39.1h-1v-1h1V39.1z M65.6,39.1h-1v-1h1V39.1z
		 M61.6,39.1h-1v-1h1V39.1z M57.6,39.1h-1v-1h1V39.1z M53.6,39.1h-1v-1h1V39.1z M49.6,39.1h-1v-1h1V39.1z M45.6,39.1h-1v-1h1V39.1z
		 M41.6,39.1h-1v-1h1V39.1z M37.5,38.3l-0.7-0.7l0.7-0.7l0.7,0.7L37.5,38.3z M34.7,35.4L34,34.7l0.7-0.7l0.7,0.7L34.7,35.4z
		 M31.8,32.6l-0.7-0.7l0.7-0.7l0.7,0.7L31.8,32.6z M29,29.8l-0.7-0.7l0.7-0.7l0.7,0.7L29,29.8z M26.2,27l-0.7-0.7l0.7-0.7l0.7,0.7
		L26.2,27z M23.4,24.1l-0.7-0.7l0.7-0.7l0.7,0.7L23.4,24.1z M20.5,21.3l-0.7-0.7l0.7-0.7l0.7,0.7L20.5,21.3z M17.7,18.5L17,17.8
		l0.7-0.7l0.7,0.7L17.7,18.5z M14.9,15.6l-0.7-0.7l0.7-0.7l0.7,0.7L14.9,15.6z M12.1,12.8l-0.7-0.7l0.7-0.7l0.7,0.7L12.1,12.8z
		 M9.2,10L8.5,9.3l0.7-0.7l0.7,0.7L9.2,10z M6.4,7.2L5.7,6.5l0.7-0.7l0.7,0.7L6.4,7.2z M3.6,4.3L2.9,3.6l0.7-0.7l0.7,0.7L3.6,4.3z"
		/>
</g>
<circle class="st1" cx="2.9" cy="2.9" r="2.9"/>
<circle class="st1" cx="230.9" cy="38.7" r="2.9"/>
</svg>
