<?xml version="1.0" encoding="utf-8"?>
<!-- Generator: Adobe Illustrator 21.0.2, SVG Export Plug-In . SVG Version: 6.00 Build 0)  -->
<svg version="1.1" id="Layer_1" xmlns="http://www.w3.org/2000/svg" xmlns:xlink="http://www.w3.org/1999/xlink" x="0px" y="0px"
	 viewBox="0 0 295.1 99.2" style="enable-background:new 0 0 295.1 99.2;" xml:space="preserve">
<style type="text/css">
	.st0{fill:#090B0F;}
	.st1{fill:#81BDC9;}
</style>
<g>
	<g>
		<rect x="289.8" y="95.8" class="st0" width="0.5" height="1"/>
	</g>
	<g>
		<path class="st0" d="M286.8,96.8h-1v-1h1V96.8z M282.7,96.8h-1v-1h1V96.8z M278.7,96.8h-1v-1h1V96.8z M274.7,96.8h-1v-1h1V96.8z
			 M270.7,96.8h-1v-1h1V96.8z M266.7,96.8h-1v-1h1V96.8z M262.6,96.8h-1v-1h1V96.8z M258.6,96.8h-1v-1h1V96.8z M254.6,96.8h-1v-1h1
			V96.8z M250.6,96.8h-1v-1h1V96.8z M246.6,96.8h-1v-1h1V96.8z M242.5,96.8h-1v-1h1V96.8z M238.5,96.8h-1v-1h1V96.8z M234.5,96.8h-1
			v-1h1V96.8z M230.5,96.8h-1v-1h1V96.8z M226.5,96.8h-1v-1h1V96.8z M222.5,96.8h-1v-1h1V96.8z M218.4,96.8h-1v-1h1V96.8z
			 M214.4,96.8h-1v-1h1V96.8z M210.4,96.8h-1v-1h1V96.8z M206.4,96.8h-1v-1h1V96.8z M202.4,96.8h-1v-1h1V96.8z M198.3,96.8h-1v-1h1
			V96.8z M194.3,96.8h-1v-1h1V96.8z M190.3,96.8h-1v-1h1V96.8z M186.3,96.8h-1v-1h1V96.8z M182.3,96.8h-1v-1h1V96.8z M178.2,96.8h-1
			v-1h1V96.8z M174.2,96.8h-1v-1h1V96.8z M170.2,96.8h-1v-1h1V96.8z M166.2,96.8h-1v-1h1V96.8z M162.2,96.8h-1v-1h1V96.8z
			 M158.1,96.8h-1v-1h1V96.8z M154.1,96.8h-1v-1h1V96.8z M150.1,96.8h-1v-1h1V96.8z M146.1,96.8h-1v-1h1V96.8z M142.1,96.8h-1v-1h1
			V96.8z M138.1,96.8h-1v-1h1V96.8z M134,96.8h-1v-1h1V96.8z M130,96.8h-1v-1h1V96.8z M126,96.8h-1v-1h1V96.8z M122,96.8h-1v-1h1
			V96.8z M118,96.8h-1v-1h1V96.8z M113.9,96.8h-1v-1h1V96.8z M109.9,96.8h-1v-1h1V96.8z M105.9,96.8h-1v-1h1V96.8z M101.9,96.8h-1
			v-1h1V96.8z M97.9,96.8h-1v-1h1V96.8z M94.2,94.9l-0.7-0.7l0.7-0.7l0.7,0.7L94.2,94.9z M91.4,92.1l-0.7-0.7l0.7-0.7l0.7,0.7
			L91.4,92.1z M88.5,89.2l-0.7-0.7l0.7-0.7l0.7,0.7L88.5,89.2z M85.7,86.4L85,85.7l0.7-0.7l0.7,0.7L85.7,86.4z M82.8,83.5l-0.7-0.7
			l0.7-0.7l0.7,0.7L82.8,83.5z M80,80.7L79.3,80l0.7-0.7l0.7,0.7L80,80.7z M77.2,77.9l-0.7-0.7l0.7-0.7l0.7,0.7L77.2,77.9z M74.3,75
			l-0.7-0.7l0.7-0.7l0.7,0.7L74.3,75z M71.5,72.2l-0.7-0.7l0.7-0.7l0.7,0.7L71.5,72.2z M68.6,69.3l-0.7-0.7l0.7-0.7l0.7,0.7
			L68.6,69.3z M65.8,66.5l-0.7-0.7l0.7-0.7l0.7,0.7L65.8,66.5z M62.9,63.7L62.2,63l0.7-0.7l0.7,0.7L62.9,63.7z M60.1,60.8l-0.7-0.7
			l0.7-0.7l0.7,0.7L60.1,60.8z M57.3,58l-0.7-0.7l0.7-0.7l0.7,0.7L57.3,58z M54.4,55.1l-0.7-0.7l0.7-0.7l0.7,0.7L54.4,55.1z
			 M51.6,52.3l-0.7-0.7l0.7-0.7l0.7,0.7L51.6,52.3z M48.7,49.4L48,48.7l0.7-0.7l0.7,0.7L48.7,49.4z M45.9,46.6l-0.7-0.7l0.7-0.7
			l0.7,0.7L45.9,46.6z M43.1,43.8l-0.7-0.7l0.7-0.7l0.7,0.7L43.1,43.8z M40.2,40.9l-0.7-0.7l0.7-0.7l0.7,0.7L40.2,40.9z M37.4,38.1
			l-0.7-0.7l0.7-0.7l0.7,0.7L37.4,38.1z M34.5,35.2l-0.7-0.7l0.7-0.7l0.7,0.7L34.5,35.2z M31.7,32.4L31,31.7l0.7-0.7l0.7,0.7
			L31.7,32.4z M28.8,29.5l-0.7-0.7l0.7-0.7l0.7,0.7L28.8,29.5z M26,26.7L25.3,26l0.7-0.7l0.7,0.7L26,26.7z M23.2,23.9l-0.7-0.7
			l0.7-0.7l0.7,0.7L23.2,23.9z M20.3,21l-0.7-0.7l0.7-0.7l0.7,0.7L20.3,21z M17.5,18.2l-0.7-0.7l0.7-0.7l0.7,0.7L17.5,18.2z
			 M14.6,15.3l-0.7-0.7l0.7-0.7l0.7,0.7L14.6,15.3z M11.8,12.5l-0.7-0.7l0.7-0.7l0.7,0.7L11.8,12.5z M9,9.7L8.3,9L9,8.3L9.7,9L9,9.7
			z M6.1,6.8L5.4,6.1l0.7-0.7l0.7,0.7L6.1,6.8z"/>
	</g>
	<g>
		<rect x="2.9" y="3.2" transform="matrix(0.7066 -0.7076 0.7076 0.7066 -1.4556 3.4342)" class="st0" width="1" height="0.5"/>
	</g>
</g>
<circle class="st1" cx="2.9" cy="2.9" r="2.9"/>
<circle class="st1" cx="292.2" cy="96.3" r="2.9"/>
</svg>
