<?xml version="1.0" encoding="utf-8"?>
<!-- Generator: Adobe Illustrator 21.0.2, SVG Export Plug-In . SVG Version: 6.00 Build 0)  -->
<svg version="1.1" id="Layer_1" xmlns="http://www.w3.org/2000/svg" xmlns:xlink="http://www.w3.org/1999/xlink" x="0px" y="0px"
	 viewBox="0 0 182 5.8" style="enable-background:new 0 0 182 5.8;" xml:space="preserve">
<style type="text/css">
	.st0{fill:#090B0F;}
	.st1{fill:#81BDC9;}
</style>
<g>
	<path class="st0" d="M177.5,3.3h-1v-1h1V3.3z M173.5,3.3h-1v-1h1V3.3z M169.5,3.3h-1v-1h1V3.3z M165.5,3.3h-1v-1h1V3.3z M161.5,3.3
		h-1v-1h1V3.3z M157.5,3.3h-1v-1h1V3.3z M153.5,3.3h-1v-1h1V3.3z M149.5,3.3h-1v-1h1V3.3z M145.5,3.3h-1v-1h1V3.3z M141.5,3.3h-1v-1
		h1V3.3z M137.5,3.3h-1v-1h1V3.3z M133.5,3.3h-1v-1h1V3.3z M129.5,3.3h-1v-1h1V3.3z M125.5,3.3h-1v-1h1V3.3z M121.5,3.3h-1v-1h1V3.3
		z M117.5,3.3h-1v-1h1V3.3z M113.5,3.3h-1v-1h1V3.3z M109.5,3.3h-1v-1h1V3.3z M105.5,3.3h-1v-1h1V3.3z M101.5,3.3h-1v-1h1V3.3z
		 M97.5,3.3h-1v-1h1V3.3z M93.5,3.3h-1v-1h1V3.3z M89.5,3.3h-1v-1h1V3.3z M85.5,3.3h-1v-1h1V3.3z M81.5,3.3h-1v-1h1V3.3z M77.5,3.3
		h-1v-1h1V3.3z M73.5,3.3h-1v-1h1V3.3z M69.5,3.3h-1v-1h1V3.3z M65.5,3.3h-1v-1h1V3.3z M61.5,3.3h-1v-1h1V3.3z M57.5,3.3h-1v-1h1
		V3.3z M53.5,3.3h-1v-1h1V3.3z M49.5,3.3h-1v-1h1V3.3z M45.5,3.3h-1v-1h1V3.3z M41.5,3.3h-1v-1h1V3.3z M37.5,3.3h-1v-1h1V3.3z
		 M33.5,3.3h-1v-1h1V3.3z M29.5,3.3h-1v-1h1V3.3z M25.5,3.3h-1v-1h1V3.3z M21.5,3.3h-1v-1h1V3.3z M17.5,3.3h-1v-1h1V3.3z M13.5,3.3
		h-1v-1h1V3.3z M9.5,3.3h-1v-1h1V3.3z M5.5,3.3h-1v-1h1V3.3z"/>
</g>
<circle class="st1" cx="2.9" cy="2.9" r="2.9"/>
<circle class="st1" cx="179.1" cy="2.9" r="2.9"/>
</svg>
