<svg version="1.1" id="Layer_1" xmlns="http://www.w3.org/2000/svg" x="0" y="0" viewBox="0 0 301.5 73.5" xml:space="preserve"><style>.st1{fill:#81bdc9}</style><path d="M297.2 69.9l-.7-.7.7-.7.7.7-.7.7zm-2.9-2.9l-.7-.7.7-.7.7.7-.7.7zm-2.8-2.8l-.7-.7.7-.7.7.7-.7.7zm-2.8-2.8l-.7-.7.7-.7.7.7-.7.7zm-2.8-2.8l-.7-.7.7-.7.7.7-.7.7zm-2.9-2.9l-.7-.7.7-.7.7.7-.7.7zm-2.8-2.8l-.7-.7.7-.7.7.7-.7.7zm-2.8-2.8l-.7-.7.7-.7.7.7-.7.7zm-2.9-2.9l-.7-.7.7-.7.7.7-.7.7zm-2.8-2.8l-.7-.7.7-.7.7.7-.7.7zm-2.8-2.8l-.7-.7.7-.7.7.7-.7.7zm-2.8-2.8l-.7-.7.7-.7.7.7-.7.7zm-2.9-2.9l-.7-.7.7-.7.7.7-.7.7zm-2.8-2.8l-.7-.7.7-.7.7.7-.7.7zm-2.8-2.8l-.7-.7.7-.7.7.7-.7.7zm-2.9-2.9l-.7-.7.7-.7.7.7-.7.7zm-2.8-2.8l-.7-.7.7-.7.7.7-.7.7zm-2.8-2.8l-.7-.7.7-.7.7.7-.7.7zm-2.8-2.8l-.7-.7.7-.7.7.7-.7.7zm-2.9-2.9l-.7-.7.7-.7.7.7-.7.7zm-2.8-2.8l-.7-.7.7-.7.7.7-.7.7zm-2.8-2.8l-.7-.7.7-.7.7.7-.7.7zm-2.9-2.9l-.7-.7.7-.7.7.7-.7.7zm-2.8-2.8l-.7-.7.7-.7.7.7-.7.7zm-3-1.5h-1v-1h1v1zm-4 0h-1v-1h1v1zm-4 0h-1v-1h1v1zm-4 0h-1v-1h1v1zm-4 0h-1v-1h1v1zm-4 0h-1v-1h1v1zm-4 0h-1v-1h1v1zm-4 0h-1v-1h1v1zm-4 0h-1v-1h1v1zm-4 0h-1v-1h1v1zm-4 0h-1v-1h1v1zm-4 0h-1v-1h1v1zm-4 0h-1v-1h1v1zm-4 0h-1v-1h1v1zm-4 0h-1v-1h1v1zm-4 0h-1v-1h1v1zm-4 0h-1v-1h1v1zm-4 0h-1v-1h1v1zm-4 0h-1v-1h1v1zm-4 0h-1v-1h1v1zm-4 0h-1v-1h1v1zm-4 0h-1v-1h1v1zm-4 0h-1v-1h1v1zm-4 0h-1v-1h1v1zm-4 0h-1v-1h1v1zm-4 0h-1v-1h1v1zm-4 0h-1v-1h1v1zm-4 0h-1v-1h1v1zm-4 0h-1v-1h1v1zm-4 0h-1v-1h1v1zm-4 0h-1v-1h1v1zm-4 0h-1v-1h1v1zm-4 0h-1v-1h1v1zm-4 0h-1v-1h1v1zm-4 0h-1v-1h1v1zm-4 0h-1v-1h1v1zm-4 0h-1v-1h1v1zm-4 0h-1v-1h1v1zm-4 0h-1v-1h1v1zm-4 0h-1v-1h1v1zm-4 0h-1v-1h1v1zm-4 0h-1v-1h1v1zm-4 0h-1v-1h1v1zm-4 0h-1v-1h1v1zm-4 0h-1v-1h1v1zm-4 0h-1v-1h1v1zm-4 0h-1v-1h1v1zm-4 0h-1v-1h1v1zm-4 0h-1v-1h1v1zm-4 0h-1v-1h1v1zm-4 0h-1v-1h1v1zm-4 0h-1v-1h1v1zm-4 0h-1v-1h1v1zm-4 0h-1v-1h1v1zm-4 0h-1v-1h1v1zm-4 0h-1v-1h1v1zm-4 0h-1v-1h1v1z" fill="#090b0f"/><circle class="st1" cx="2.9" cy="2.9" r="2.9"/><circle class="st1" cx="298.6" cy="70.6" r="2.9"/></svg>