<svg version="1.1" id="Layer_1" xmlns="http://www.w3.org/2000/svg" x="0" y="0" viewBox="0 0 268.1 27.8" xml:space="preserve"><style>.st1{fill:#81bdc9}</style><path d="M245.2 25.3h-.8v-1h.4l.1-.1.7.7-.4.4zm-3.8 0h-1v-1h1v1zm-4 0h-1v-1h1v1zm-4 0h-1v-1h1v1zm-4 0h-1v-1h1v1zm-4 0h-1v-1h1v1zm-4 0h-1v-1h1v1zm-4 0h-1v-1h1v1zm-4 0h-1v-1h1v1zm-4 0h-1v-1h1v1zm-4 0h-1v-1h1v1zm-4 0h-1v-1h1v1zm-4 0h-1v-1h1v1zm-4 0h-1v-1h1v1zm-4 0h-1v-1h1v1zm-4 0h-1v-1h1v1zm-4 0h-1v-1h1v1zm-4 0h-1v-1h1v1zm-4 0h-1v-1h1v1zm-4 0h-1v-1h1v1zm-4 0h-1v-1h1v1zm-4 0h-1v-1h1v1zm-4 0h-1v-1h1v1zm-4 0h-1v-1h1v1zm-4 0h-1v-1h1v1zm-4 0h-1v-1h1v1zm-4 0h-1v-1h1v1zm-4 0h-1v-1h1v1zm-4 0h-1v-1h1v1zm-4 0h-1v-1h1v1zm-4 0h-1v-1h1v1zm-4 0h-1v-1h1v1zm-4 0h-1v-1h1v1zm-4 0h-1v-1h1v1zm-4 0h-1v-1h1v1zm-4 0h-1v-1h1v1zm-4 0h-1v-1h1v1zm-4 0h-1v-1h1v1zm-4 0h-1v-1h1v1zm-4 0h-1v-1h1v1zm-4 0h-1v-1h1v1zm-4 0h-1v-1h1v1zm-4 0h-1v-1h1v1zm-4 0h-1v-1h1v1zm-4 0h-1v-1h1v1zm-4 0h-1v-1h1v1zm-4 0h-1v-1h1v1zm-4 0h-1v-1h1v1zm-4 0h-1v-1h1v1zm-4 0h-1v-1h1v1zm-4 0h-1v-1h1v1zm-4 0h-1v-1h1v1zm-4 0h-1v-1h1v1zm-4 0h-1v-1h1v1zm-4 0h-1v-1h1v1zm-4 0h-1v-1h1v1zm-4 0h-1v-1h1v1zm-4 0h-1v-1h1v1zm-4 0h-1v-1h1v1zm-4 0h-1v-1h1v1zm-4 0h-1v-1h1v1zm242.3-2.6l-.7-.7.7-.7.7.7-.7.7zm2.6-3l-.7-.7.7-.7.7.7-.7.7zm2.7-3l-.7-.7.7-.7.7.7-.7.7zm2.7-2.9l-.7-.7.7-.7.7.7-.7.7zm2.7-3l-.7-.7.7-.7.7.7-.7.7zm2.7-2.9l-.7-.7.7-.7.7.7-.7.7zm2.7-3l-.7-.7.7-.7.7.7-.7.7z" fill="#090b0f"/><circle class="st1" cx="2.9" cy="24.9" r="2.9"/><circle class="st1" cx="265.2" cy="2.9" r="2.9"/></svg>