<svg version="1.1" id="Layer_1" xmlns="http://www.w3.org/2000/svg" x="0" y="0" viewBox="0 0 366.5 60.2" xml:space="preserve"><style>.st1{fill:#81bdc9}</style><path d="M309.2 57.9h-1v-1h1v1zm-4 0h-1v-1h1v1zm-4 0h-1v-1h1v1zm-4 0h-1v-1h1v1zm-4 0h-1v-1h1v1zm-4 0h-1v-1h1v1zm-4 0h-1v-1h1v1zm-4 0h-1v-1h1v1zm-4 0h-1v-1h1v1zm-4 0h-1v-1h1v1zm-4 0h-1v-1h1v1zm-4 0h-1v-1h1v1zm-4 0h-1v-1h1v1zm-4 0h-1v-1h1v1zm-4 0h-1v-1h1v1zm-4 0h-1v-1h1v1zm-4 0h-1v-1h1v1zm-4 0h-1v-1h1v1zm-4 0h-1v-1h1v1zm-4 0h-1v-1h1v1zm-4 0h-1v-1h1v1zm-4 0h-1v-1h1v1zm-4 0h-1v-1h1v1zm-4 0h-1v-1h1v1zm-4 0h-1v-1h1v1zm-4 0h-1v-1h1v1zm-4 0h-1v-1h1v1zm-4 0h-1v-1h1v1zm-4 0h-1v-1h1v1zm-4 0h-1v-1h1v1zm-4 0h-1v-1h1v1zm-4 0h-1v-1h1v1zm-4 0h-1v-1h1v1zm-4 0h-1v-1h1v1zm-4 0h-1v-1h1v1zm-4 0h-1v-1h1v1zm-4 0h-1v-1h1v1zm-4 0h-1v-1h1v1zm-4 0h-1v-1h1v1zm-4 0h-1v-1h1v1zm-4 0h-1v-1h1v1zm-4 0h-1v-1h1v1zm-4 0h-1v-1h1v1zm-4 0h-1v-1h1v1zm-4 0h-1v-1h1v1zm-4 0h-1v-1h1v1zm-4 0h-1v-1h1v1zm-4 0h-1v-1h1v1zm-4 0h-1v-1h1v1zm-4 0h-1v-1h1v1zm-4 0h-1v-1h1v1zm-4 0h-1v-1h1v1zm-4 0h-1v-1h1v1zm-4 0h-1v-1h1v1zm-4 0h-1v-1h1v1zm-4 0h-1v-1h1v1zm-4 0h-1v-1h1v1zm-4 0h-1v-1h1v1zm-4 0h-1v-1h1v1zm-4 0h-1v-1h1v1zm-4 0h-1v-1h1v1zm-4 0h-1v-1h1v1zm-4 0h-1v-1h1v1zm-4 0h-1v-1h1v1zm-4 0h-1v-1h1v1zm-4 0h-1v-1h1v1zm-4 0h-1v-1h1v1zm-4 0h-1v-1h1v1zm-4 0h-1v-1h1v1zm-4 0h-1v-1h1v1zm-4 0h-1v-1h1v1zm-4 0h-1v-1h1v1zm-4 0h-1v-1h1v1zm-4 0h-1v-1h1v1zm-4 0h-1v-1h1v1zm-4 0h-1v-1h1v1zm-4 0h-1v-1h1v1zm306.9-1.1l-.7-.7.7-.7.7.7-.7.7zm2.8-2.9l-.7-.7.7-.7.7.7-.7.7zm2.8-2.9l-.7-.7.7-.7.7.7-.7.7zm2.8-2.9l-.7-.7.7-.7.7.7-.7.7zm2.7-2.8l-.7-.7.7-.7.7.7-.7.7zm2.8-2.9l-.7-.7.7-.7.7.7-.7.7zm2.8-2.9l-.7-.7.7-.7.7.7-.7.7zm2.8-2.9l-.7-.7.7-.7.7.7-.7.7zm2.8-2.8l-.7-.7.7-.7.7.7-.7.7zm2.7-2.9l-.7-.7.7-.7.7.7-.7.7zm2.8-2.9l-.7-.7.7-.7.7.7-.7.7zm2.8-2.9l-.7-.7.7-.7.7.7-.7.7zm2.8-2.9l-.7-.7.7-.7.7.7-.7.7zm2.8-2.8l-.7-.7.7-.7.7.7-.7.7zm2.7-2.9l-.7-.7.7-.7.7.7-.7.7zm2.8-2.9l-.7-.7.7-.7.7.7-.7.7zm2.8-2.9l-.7-.7.7-.7.7.7-.7.7zm2.8-2.8l-.7-.7.7-.7.7.7-.7.7zm2.8-2.9l-.7-.7.7-.7.7.7-.7.7z" fill="#090b0f"/><circle class="st1" cx="2.9" cy="57.3" r="2.9"/><circle class="st1" cx="363.6" cy="2.9" r="2.9"/></svg>