<svg version="1.1" id="Layer_1" xmlns="http://www.w3.org/2000/svg" x="0" y="0" viewBox="0 0 335.3 104.3" xml:space="preserve"><style>.st1{fill:#81bdc9}</style><path d="M3.6 101.4l-.7-.7.7-.7.7.7-.7.7zm2.8-2.9l-.7-.7.7-.7.7.7-.7.7zm2.8-2.8l-.7-.7.7-.7.7.7-.7.7zm2.9-2.8l-.7-.7.7-.7.7.7-.7.7zm2.8-2.8l-.7-.7.7-.7.7.7-.7.7zm2.8-2.9l-.7-.7.7-.7.7.7-.7.7zm2.9-2.8l-.7-.7.7-.7.7.7-.7.7zm2.8-2.8l-.7-.7.7-.7.7.7-.7.7zm2.8-2.9l-.7-.7.7-.7.7.7-.7.7zm2.8-2.8l-.7-.7.7-.7.7.7-.7.7zm2.9-2.8l-.7-.7.7-.7.7.7-.7.7zm2.8-2.8l-.7-.7.7-.7.7.7-.7.7zm2.8-2.9l-.7-.7.7-.7.7.7-.7.7zm2.9-2.8l-.7-.7.7-.7.7.7-.7.7zm2.8-2.8l-.7-.7.7-.7.7.7-.7.7zm2.8-2.9l-.7-.7.7-.7.7.7-.7.7zm2.8-2.8l-.7-.7.7-.7.7.7-.7.7zm2.9-2.8l-.7-.7.7-.7.7.7-.7.7zm2.8-2.8l-.7-.7.7-.7.7.7-.7.7zm2.8-2.9l-.7-.7.7-.7.7.7-.7.7zm2.9-2.8l-.7-.7.7-.7.7.7-.7.7zM63 42l-.7-.7.7-.7.7.7-.7.7zm2.8-2.9l-.7-.7.7-.7.7.7-.7.7zm2.8-2.8l-.7-.7.7-.7.7.7-.7.7zm2.9-2.8l-.7-.7.7-.7.7.7-.7.7zm2.8-2.8l-.7-.7.7-.7.7.7-.7.7zm2.8-2.9l-.7-.7.7-.7.7.7-.7.7zM80 25l-.7-.7.7-.7.7.7-.7.7zm2.8-2.8l-.7-.7.7-.7.7.7-.7.7zm2.8-2.9l-.7-.7.7-.7.7.7-.7.7zm2.8-2.8l-.7-.7.7-.7.7.7-.7.7zm2.9-2.8l-.7-.7.7-.7.7.7-.7.7zm2.8-2.8l-.7-.7.7-.7.7.7-.7.7zM96.9 8l-.7-.7.7-.7.7.7-.7.7zm2.9-2.8l-.7-.7.7-.7.7.7-.7.7zM331.4 3h-1V2h1v1zm-4 0h-1V2h1v1zm-4 0h-1V2h1v1zm-4 0h-1V2h1v1zm-4 0h-1V2h1v1zm-4 0h-1V2h1v1zm-4 0h-1V2h1v1zm-4 0h-1V2h1v1zm-4 0h-1V2h1v1zm-4 0h-1V2h1v1zm-4 0h-1V2h1v1zm-4 0h-1V2h1v1zm-4 0h-1V2h1v1zm-4 0h-1V2h1v1zm-4 0h-1V2h1v1zm-4 0h-1V2h1v1zm-4 0h-1V2h1v1zm-4 0h-1V2h1v1zm-4 0h-1V2h1v1zm-4 0h-1V2h1v1zm-4 0h-1V2h1v1zm-4 0h-1V2h1v1zm-4 0h-1V2h1v1zm-4 0h-1V2h1v1zm-4 0h-1V2h1v1zm-4 0h-1V2h1v1zm-4 0h-1V2h1v1zm-4 0h-1V2h1v1zm-4 0h-1V2h1v1zm-4 0h-1V2h1v1zm-4 0h-1V2h1v1zm-4 0h-1V2h1v1zm-4 0h-1V2h1v1zm-4 0h-1V2h1v1zm-4 0h-1V2h1v1zm-4 0h-1V2h1v1zm-4 0h-1V2h1v1zm-4 0h-1V2h1v1zm-4 0h-1V2h1v1zm-4 0h-1V2h1v1zm-4 0h-1V2h1v1zm-4 0h-1V2h1v1zm-4 0h-1V2h1v1zm-4 0h-1V2h1v1zm-4 0h-1V2h1v1zm-4 0h-1V2h1v1zm-4 0h-1V2h1v1zm-4 0h-1V2h1v1zm-4 0h-1V2h1v1zm-4 0h-1V2h1v1zm-4 0h-1V2h1v1zm-4 0h-1V2h1v1zm-4 0h-1V2h1v1zm-4 0h-1V2h1v1zm-4 0h-1V2h1v1zm-4 0h-1V2h1v1zm-4 0h-1V2h1v1zm-4 0h-1V2h1v1z" fill="#090b0f"/><circle class="st1" cx="2.9" cy="101.4" r="2.9"/><circle class="st1" cx="332.4" cy="2.9" r="2.9"/></svg>