<svg version="1.1" id="Layer_1" xmlns="http://www.w3.org/2000/svg" x="0" y="0" viewBox="0 0 252.1 46.6" xml:space="preserve"><style>.st1{fill:#81bdc9}</style><path d="M3.9 43.2l-.7-.7.7-.7.7.7-.7.7zm2.8-2.8l-.7-.7.7-.7.7.7-.7.7zm2.9-2.8l-.7-.7.7-.7.7.7-.7.7zm2.8-2.9l-.7-.7.7-.7.7.7-.7.7zm2.8-2.8l-.7-.7.7-.7.7.7-.7.7zm2.9-2.8l-.7-.7.7-.7.7.7-.7.7zm2.8-2.8l-.7-.7.7-.7.7.7-.7.7zm2.8-2.9l-.7-.7.7-.7.7.7-.7.7zm2.8-2.8l-.7-.7.7-.7.7.7-.7.7zm2.9-2.8l-.7-.7.7-.7.7.7-.7.7zm2.8-2.9l-.7-.7.7-.7.7.7-.7.7zm2.8-2.8l-.7-.7.7-.7.7.7-.7.7zm2.9-2.8l-.7-.7.7-.7.7.7-.7.7zm2.8-2.8l-.7-.7.7-.7.7.7-.7.7zm2.8-2.9l-.7-.7.6-.6h.5v1h-.1l-.3.3zM248 3.3h-1v-1h1v1zm-4 0h-1v-1h1v1zm-4 0h-1v-1h1v1zm-4 0h-1v-1h1v1zm-4 0h-1v-1h1v1zm-4 0h-1v-1h1v1zm-4 0h-1v-1h1v1zm-4 0h-1v-1h1v1zm-4 0h-1v-1h1v1zm-4 0h-1v-1h1v1zm-4 0h-1v-1h1v1zm-4 0h-1v-1h1v1zm-4 0h-1v-1h1v1zm-4 0h-1v-1h1v1zm-4 0h-1v-1h1v1zm-4 0h-1v-1h1v1zm-4 0h-1v-1h1v1zm-4 0h-1v-1h1v1zm-4 0h-1v-1h1v1zm-4 0h-1v-1h1v1zm-4 0h-1v-1h1v1zm-4 0h-1v-1h1v1zm-4 0h-1v-1h1v1zm-4 0h-1v-1h1v1zm-4 0h-1v-1h1v1zm-4 0h-1v-1h1v1zm-4 0h-1v-1h1v1zm-4 0h-1v-1h1v1zm-4 0h-1v-1h1v1zm-4 0h-1v-1h1v1zm-4 0h-1v-1h1v1zm-4 0h-1v-1h1v1zm-4 0h-1v-1h1v1zm-4 0h-1v-1h1v1zm-4 0h-1v-1h1v1zm-4 0h-1v-1h1v1zm-4 0h-1v-1h1v1zm-4 0h-1v-1h1v1zm-4 0h-1v-1h1v1zm-4 0h-1v-1h1v1zm-4 0h-1v-1h1v1zm-4 0h-1v-1h1v1zm-4 0h-1v-1h1v1zm-4 0h-1v-1h1v1zm-4 0h-1v-1h1v1zm-4 0h-1v-1h1v1zm-4 0h-1v-1h1v1zm-4 0h-1v-1h1v1zm-4 0h-1v-1h1v1zm-4 0h-1v-1h1v1zm-4 0h-1v-1h1v1z" fill="#090b0f"/><circle class="st1" cx="2.9" cy="43.7" r="2.9"/><circle class="st1" cx="249.2" cy="2.9" r="2.9"/></svg>