<svg version="1.1" id="Layer_1" xmlns="http://www.w3.org/2000/svg" x="0" y="0" viewBox="0 0 233.8 41.6" xml:space="preserve"><style>.st1{fill:#81bdc9}</style><path d="M229.6 39.1h-1v-1h1v1zm-4 0h-1v-1h1v1zm-4 0h-1v-1h1v1zm-4 0h-1v-1h1v1zm-4 0h-1v-1h1v1zm-4 0h-1v-1h1v1zm-4 0h-1v-1h1v1zm-4 0h-1v-1h1v1zm-4 0h-1v-1h1v1zm-4 0h-1v-1h1v1zm-4 0h-1v-1h1v1zm-4 0h-1v-1h1v1zm-4 0h-1v-1h1v1zm-4 0h-1v-1h1v1zm-4 0h-1v-1h1v1zm-4 0h-1v-1h1v1zm-4 0h-1v-1h1v1zm-4 0h-1v-1h1v1zm-4 0h-1v-1h1v1zm-4 0h-1v-1h1v1zm-4 0h-1v-1h1v1zm-4 0h-1v-1h1v1zm-4 0h-1v-1h1v1zm-4 0h-1v-1h1v1zm-4 0h-1v-1h1v1zm-4 0h-1v-1h1v1zm-4 0h-1v-1h1v1zm-4 0h-1v-1h1v1zm-4 0h-1v-1h1v1zm-4 0h-1v-1h1v1zm-4 0h-1v-1h1v1zm-4 0h-1v-1h1v1zm-4 0h-1v-1h1v1zm-4 0h-1v-1h1v1zm-4 0h-1v-1h1v1zm-4 0h-1v-1h1v1zm-4 0h-1v-1h1v1zm-4 0h-1v-1h1v1zm-4 0h-1v-1h1v1zm-4 0h-1v-1h1v1zm-4 0h-1v-1h1v1zm-4 0h-1v-1h1v1zm-4 0h-1v-1h1v1zm-4 0h-1v-1h1v1zm-4 0h-1v-1h1v1zm-4 0h-1v-1h1v1zm-4 0h-1v-1h1v1zm-4 0h-1v-1h1v1zm-4.1-.8l-.7-.7.7-.7.7.7-.7.7zm-2.8-2.9l-.7-.7.7-.7.7.7-.7.7zm-2.9-2.8l-.7-.7.7-.7.7.7-.7.7zM29 29.8l-.7-.7.7-.7.7.7-.7.7zM26.2 27l-.7-.7.7-.7.7.7-.7.7zm-2.8-2.9l-.7-.7.7-.7.7.7-.7.7zm-2.9-2.8l-.7-.7.7-.7.7.7-.7.7zm-2.8-2.8l-.7-.7.7-.7.7.7-.7.7zm-2.8-2.9l-.7-.7.7-.7.7.7-.7.7zm-2.8-2.8l-.7-.7.7-.7.7.7-.7.7zM9.2 10l-.7-.7.7-.7.7.7-.7.7zM6.4 7.2l-.7-.7.7-.7.7.7-.7.7zM3.6 4.3l-.7-.7.7-.7.7.7-.7.7z" fill="#090b0f"/><circle class="st1" cx="2.9" cy="2.9" r="2.9"/><circle class="st1" cx="230.9" cy="38.7" r="2.9"/></svg>