<svg version="1.1" id="Layer_1" xmlns="http://www.w3.org/2000/svg" x="0" y="0" viewBox="0 0 295.1 99.2" xml:space="preserve"><style>.st0{fill:#090b0f}.st1{fill:#81bdc9}</style><path class="st0" d="M289.8 95.8h.5v1h-.5zm-3 1h-1v-1h1v1zm-4.1 0h-1v-1h1v1zm-4 0h-1v-1h1v1zm-4 0h-1v-1h1v1zm-4 0h-1v-1h1v1zm-4 0h-1v-1h1v1zm-4.1 0h-1v-1h1v1zm-4 0h-1v-1h1v1zm-4 0h-1v-1h1v1zm-4 0h-1v-1h1v1zm-4 0h-1v-1h1v1zm-4.1 0h-1v-1h1v1zm-4 0h-1v-1h1v1zm-4 0h-1v-1h1v1zm-4 0h-1v-1h1v1zm-4 0h-1v-1h1v1zm-4 0h-1v-1h1v1zm-4.1 0h-1v-1h1v1zm-4 0h-1v-1h1v1zm-4 0h-1v-1h1v1zm-4 0h-1v-1h1v1zm-4 0h-1v-1h1v1zm-4.1 0h-1v-1h1v1zm-4 0h-1v-1h1v1zm-4 0h-1v-1h1v1zm-4 0h-1v-1h1v1zm-4 0h-1v-1h1v1zm-4.1 0h-1v-1h1v1zm-4 0h-1v-1h1v1zm-4 0h-1v-1h1v1zm-4 0h-1v-1h1v1zm-4 0h-1v-1h1v1zm-4.1 0h-1v-1h1v1zm-4 0h-1v-1h1v1zm-4 0h-1v-1h1v1zm-4 0h-1v-1h1v1zm-4 0h-1v-1h1v1zm-4 0h-1v-1h1v1zm-4.1 0h-1v-1h1v1zm-4 0h-1v-1h1v1zm-4 0h-1v-1h1v1zm-4 0h-1v-1h1v1zm-4 0h-1v-1h1v1zm-4.1 0h-1v-1h1v1zm-4 0h-1v-1h1v1zm-4 0h-1v-1h1v1zm-4 0h-1v-1h1v1zm-4 0h-1v-1h1v1zm-3.7-1.9l-.7-.7.7-.7.7.7-.7.7zm-2.8-2.8l-.7-.7.7-.7.7.7-.7.7zm-2.9-2.9l-.7-.7.7-.7.7.7-.7.7zm-2.8-2.8l-.7-.7.7-.7.7.7-.7.7zm-2.9-2.9l-.7-.7.7-.7.7.7-.7.7zM80 80.7l-.7-.7.7-.7.7.7-.7.7zm-2.8-2.8l-.7-.7.7-.7.7.7-.7.7zM74.3 75l-.7-.7.7-.7.7.7-.7.7zm-2.8-2.8l-.7-.7.7-.7.7.7-.7.7zm-2.9-2.9l-.7-.7.7-.7.7.7-.7.7zm-2.8-2.8l-.7-.7.7-.7.7.7-.7.7zm-2.9-2.8l-.7-.7.7-.7.7.7-.7.7zm-2.8-2.9l-.7-.7.7-.7.7.7-.7.7zM57.3 58l-.7-.7.7-.7.7.7-.7.7zm-2.9-2.9l-.7-.7.7-.7.7.7-.7.7zm-2.8-2.8l-.7-.7.7-.7.7.7-.7.7zm-2.9-2.9l-.7-.7.7-.7.7.7-.7.7zm-2.8-2.8l-.7-.7.7-.7.7.7-.7.7zm-2.8-2.8l-.7-.7.7-.7.7.7-.7.7zm-2.9-2.9l-.7-.7.7-.7.7.7-.7.7zm-2.8-2.8l-.7-.7.7-.7.7.7-.7.7zm-2.9-2.9l-.7-.7.7-.7.7.7-.7.7zm-2.8-2.8l-.7-.7.7-.7.7.7-.7.7zm-2.9-2.9l-.7-.7.7-.7.7.7-.7.7zM26 26.7l-.7-.7.7-.7.7.7-.7.7zm-2.8-2.8l-.7-.7.7-.7.7.7-.7.7zM20.3 21l-.7-.7.7-.7.7.7-.7.7zm-2.8-2.8l-.7-.7.7-.7.7.7-.7.7zm-2.9-2.9l-.7-.7.7-.7.7.7-.7.7zm-2.8-2.8l-.7-.7.7-.7.7.7-.7.7zM9 9.7L8.3 9l.7-.7.7.7-.7.7zM6.1 6.8l-.7-.7.7-.7.7.7-.7.7z"/><path transform="rotate(-45.041 3.413 3.472)" class="st0" d="M2.9 3.2h1v.5h-1z"/><circle class="st1" cx="2.9" cy="2.9" r="2.9"/><circle class="st1" cx="292.2" cy="96.3" r="2.9"/></svg>