<svg id="Layer_1" xmlns="http://www.w3.org/2000/svg" xmlns:xlink="http://www.w3.org/1999/xlink" viewBox="0 0 147 31"><style>.st0{fill:#0d0f0f}</style><path class="st0" d="M5.4 8.7H.5c-.3 0-.5-.2-.5-.5v-.7c0-.2.2-.5.5-.5h11.7c.3 0 .5.2.5.5v.7c0 .2-.2.5-.5.5h-5v14.8c0 .2-.2.5-.5.5h-.9c-.2 0-.5-.2-.5-.5V8.7h.1zm9.8-1.2c0-.2.2-.5.5-.5h9.9c.3 0 .5.2.5.5v.7c0 .2-.2.5-.5.5H17v5.9h7.3c.2 0 .5.2.5.5v.7c0 .3-.2.5-.5.5H17v6.1h8.5c.3 0 .5.2.5.5v.7c0 .2-.2.5-.5.5h-9.9c-.3 0-.5-.2-.5-.5l.1-16.1zm18.6 7.8l-4.7-7.5c-.2-.3 0-.7.4-.7h1.3c.2 0 .3.1.4.2l3.7 6.4 3.8-6.4c.1-.1.2-.2.4-.2h1.3c.4 0 .6.4.4.7l-4.7 7.5 4.9 8c.2.3 0 .7-.4.7h-1.1c-.2 0-.4-.1-.4-.2L35 17l-4.1 6.8c-.1.1-.2.2-.4.2h-1.1c-.4 0-.6-.4-.4-.7l4.8-8zm10.5-7.8c0-.2.2-.5.5-.5h.9c.3 0 .5.2.5.5v7h9.4v-7c0-.2.2-.5.5-.5h.9c.2 0 .5.2.5.5v15.9c0 .2-.2.5-.5.5h-1c-.3 0-.5-.2-.5-.5v-7.3h-9.4v7.3c0 .2-.2.5-.5.5h-.9c-.2 0-.5-.2-.5-.5V7.5h.1z"/><defs><path id="SVGID_1_" d="M62.4 15.5c0-5 4.1-9.2 9.2-9.2 5 0 9.2 4.1 9.2 9.2 0 5-4.1 9.2-9.2 9.2-5.1-.1-9.2-4.2-9.2-9.2m8.5-15c-8 .3-14.4 6.9-14.4 15 0 8.3 6.7 15 15 15s15-6.7 15-15c0-8.1-6.4-14.7-14.4-15h-1.2z"/></defs><clipPath id="SVGID_2_"><use xlink:href="#SVGID_1_" overflow="visible"/></clipPath><linearGradient id="SVGID_3_" gradientUnits="userSpaceOnUse" x1="-1101.207" y1="-261.803" x2="-1101.086" y2="-261.803" gradientTransform="rotate(180 -137847.875 -32774.809) scale(250.4365)"><stop offset="0" stop-color="#ffdc00"/><stop offset="1" stop-color="#f2aa36"/></linearGradient><path d="M56.6.5h30v30h-30V.5z" clip-path="url(#SVGID_2_)" fill="url(#SVGID_3_)"/><path class="st0" d="M88 6.8c2.4 0 4.2.7 5.8 2.2.2.2.2.5 0 .7l-1.9 2c-.2.2-.4.2-.6 0-1-.9-2.1-1.2-3.3-1.2-2.7 0-4.7 2.3-4.7 5s2 4.9 4.8 4.9c1.3 0 2.4-.4 3.2-1.2.2-.1.5-.1.6 0l1.9 2c.2.2.1.5 0 .7-1.6 1.6-3.7 2.3-5.9 2.3-4.8 0-8.7-3.8-8.7-8.7 0-4.8 3.9-8.7 8.8-8.7m8 .7c0-.2.2-.5.5-.5h2.9c.3 0 .5.2.5.5v9.8L107 7.1c.2-.2.4-.3.6-.3h2.5c.2 0 .5.1.5.4v16.3c0 .2-.2.5-.5.5h-2.9c-.3 0-.5-.2-.5-.5v-9.3l-7.1 9.7c-.2.2-.4.4-.6.4h-2.6c-.2 0-.5-.2-.5-.4L96 7.5zm25 6l-4.1 10.3c0 .1-.2.3-.4.3h-3.2c-.4 0-.6-.3-.4-.6l6.4-16.3c.1-.1.2-.3.4-.3h2.5c.2 0 .3.1.4.3l6.5 16.3c.1.3 0 .6-.4.6h-3.2c-.2 0-.4-.1-.4-.3L121 13.5zm20.1 4.8l-2.2-5.8-2.2 5.8h4.4zm-10.3 5.1l6.4-16.3c.1-.1.2-.3.4-.3h2.5c.2 0 .3.1.4.3l6.4 16.3c.1.3 0 .6-.4.6h-2.7c-.4 0-.6-.1-.8-.6l-1.1-2.7h-6l-1.2 2.7c-.1.3-.4.6-.9.6h-2.7c-.3.1-.5-.2-.3-.6"/></svg>